<svg xmlns="http://www.w3.org/2000/svg" width="140.336" height="116" viewBox="0 0 140.336 116">
    <defs>
        <style>
            .cls-2{fill:#150035}.cls-3{fill:#39a1ff}.cls-4{fill:#fff}
        </style>
    </defs>
    <g id="Group_124" transform="translate(-890 -263)">
        <circle id="Ellipse_10" cx="58" cy="58" r="58" fill="#419ad2" transform="translate(906 263)"/>
        <g id="Group_99" transform="translate(742.647 173.077)">
            <g id="Group_73" transform="translate(216.154 158.376)">
                <path id="Path_204" d="M241.186 158.545a11.032 11.032 0 0 1-5.825-1.664l-15.12-9.378a8.624 8.624 0 0 0-8.82-.171l-13.831 7.851-1.046-1.842 13.831-7.852a10.763 10.763 0 0 1 10.984.211l15.12 9.381a8.9 8.9 0 0 0 9.227.113l19.829-11.64 1.071 1.825-19.827 11.64a11.039 11.039 0 0 1-5.593 1.526z" class="cls-2" transform="translate(-196.544 -143.554)"/>
            </g>
            <g id="Group_74" transform="translate(199.252 171.122)">
                <path id="Path_205" d="M185.466 169.346l-1.007-1.862c4.817-2.613 5.859-6.183 5.886-8.716a5.031 5.031 0 0 1 2.628-4.427l3.154-1.674.993 1.871-3.154 1.674a2.914 2.914 0 0 0-1.5 2.578c-.03 2.54-.976 7.287-7 10.556z" class="cls-2" transform="translate(-184.459 -152.667)"/>
            </g>
            <g id="Group_98" transform="translate(147.353 106.375)">
                <g id="Group_86" transform="translate(61.789)">
                    <g id="Group_84">
                        <g id="Group_75" transform="translate(50.934 4.767)">
                            <path id="Path_206" d="M245.994 125.522l-3-3.855c.636-.506 1.944-1.933 1.856-3.049-.078-1-1.442-1.923-2.249-2.381-6.058-3.449-11.938-.152-12.187-.011l-2.464-4.22c.344-.2 8.514-4.888 17.069-.017 2.941 1.674 4.526 3.788 4.705 6.283.287 3.995-3.317 6.928-3.73 7.25z" class="cls-2" transform="translate(-227.947 -109.783)"/>
                        </g>
                        <g id="Group_76" transform="translate(0 11.835)">
                            <path id="Path_207" d="M268.123 143.107a43.72 43.72 0 0 0 .29-12.013c-.448-3.067-3.837-.2-6.977 3.236-8.869-8.391-22.346-14.939-38.5-18.493a9.965 9.965 0 0 0-6.756.834l-12.517 7.229-1.547-5.7h-8.363s-2.776 4.383-.685 12.9a2.244 2.244 0 0 0 1.322 1.843l43.71 25.233a7.057 7.057 0 0 0 6.386 0l21.788-12.58a3.549 3.549 0 0 0 1.766-2.007 2.221 2.221 0 0 0 .083-.482z" class="cls-3" transform="translate(-191.228 -114.534)"/>
                            <path id="Path_208" d="M241.6 160.3a7.605 7.605 0 0 1-3.723-.9l-43.714-25.239a3.341 3.341 0 0 1-1.848-2.617c-2.123-8.784.726-13.417.849-13.612l.311-.491h9.754l1.4 5.155 11.324-6.535a10.917 10.917 0 0 1 7.514-.952c15.652 3.441 29.172 9.828 38.22 18.034 3.881-4.088 5.488-4.339 6.55-4.016a2.3 2.3 0 0 1 1.53 2.119 44.826 44.826 0 0 1-.284 12.279 3.042 3.042 0 0 1-.119.662 4.56 4.56 0 0 1-2.25 2.632L245.322 159.4a7.594 7.594 0 0 1-3.722.9zm-46.891-40.747c-.578 1.315-1.87 5.238-.31 11.592l.034.252c0 .294.294.641.79.927l43.715 25.239a5.972 5.972 0 0 0 5.325 0l21.791-12.581a2.565 2.565 0 0 0 1.274-1.378 1.084 1.084 0 0 0 .043-.248l.011-.115a42.709 42.709 0 0 0 .285-11.69 1.025 1.025 0 0 0-.131-.448c.025.043-1.123-.018-5.013 4.244l-.727.793-.783-.738c-8.765-8.293-22.262-14.766-38-18.229a8.865 8.865 0 0 0-6 .72L203.3 125.8l-1.694-6.251z" class="cls-2" transform="translate(-191.531 -114.837)"/>
                        </g>
                        <g id="Group_77" transform="translate(1.068)">
                            <path id="Path_209" d="M266.264 137.136l-21.79 12.58a7.055 7.055 0 0 1-6.385 0l-43.715-25.237c-1.764-1.02-1.764-2.67 0-3.687l21.79-12.581a9.968 9.968 0 0 1 6.754-.835c20.634 4.54 36.93 13.947 44.789 25.861.893 1.349.327 2.878-1.443 3.899z" class="cls-4" transform="translate(-191.992 -106.072)"/>
                            <path id="Path_210" d="M241.583 151.838a7.563 7.563 0 0 1-3.723-.9L194.146 125.7a2.984 2.984 0 0 1 0-5.522l21.79-12.58a10.919 10.919 0 0 1 7.509-.951c20.882 4.592 37.446 14.182 45.449 26.31a3.3 3.3 0 0 1 .5 2.628 4.5 4.5 0 0 1-2.3 2.772l-21.787 12.58a7.573 7.573 0 0 1-3.724.901zM220.944 108.5a8.1 8.1 0 0 0-3.95.936l-21.788 12.58c-.5.287-.793.631-.793.926s.3.639.793.926L238.92 149.1a6.008 6.008 0 0 0 5.329 0l21.786-12.582a2.515 2.515 0 0 0 1.3-1.424 1.2 1.2 0 0 0-.213-.975c-7.7-11.672-23.787-20.934-44.133-25.408a9.671 9.671 0 0 0-2.045-.211z" class="cls-2" transform="translate(-192.294 -106.375)"/>
                        </g>
                        <g id="Group_78" transform="translate(13.296 7.832)">
                            <path id="Path_211" d="M252.042 133.774l-13.742 7.938a3.615 3.615 0 0 1-3.263 0l-33.322-19.237a1 1 0 0 1 0-1.885l13.747-7.936a6.342 6.342 0 0 1 5.217-.224l4.732 2.013a105.17 105.17 0 0 1 23.531 13.589l3.494 2.73c1.177.92 1.01 2.203-.394 3.012z" class="cls-2" transform="translate(-201.037 -111.975)"/>
                        </g>
                        <g id="Group_79" transform="translate(18.025 12.57)">
                            <path id="Path_212" d="M246.234 132.872a104.227 104.227 0 0 0-23.351-13.477l-4.73-2.017a5.515 5.515 0 0 0-4.491.182l-8.428 4.866-.815-1.411 8.428-4.866a7.169 7.169 0 0 1 5.944-.269l4.733 2.015a105.958 105.958 0 0 1 23.711 13.694z" class="cls-3" transform="translate(-204.418 -115.362)"/>
                        </g>
                        <g id="Group_80" transform="translate(48.779 44.382)">
                            <path id="Rectangle_67" d="M0 0H2.121V11.552H0z" class="cls-2"/>
                        </g>
                        <g id="Group_81" transform="translate(53.219 43.013)">
                            <path id="Rectangle_68" d="M0 0H2.119V11.549H0z" class="cls-2"/>
                        </g>
                        <g id="Group_82" transform="translate(5.192 20.072)">
                            <path id="Path_213" d="M195.619 133.02a48.968 48.968 0 0 1 .006-12.294l2.092.324a47.78 47.78 0 0 0 .006 11.708z" class="cls-2" transform="translate(-195.243 -120.726)"/>
                        </g>
                        <g id="Group_83" transform="translate(71.004 32.869)">
                            <path id="Path_214" d="M244.409 141.706l-2.113-.148a85.223 85.223 0 0 0 0-11.507l2.111-.175a85.523 85.523 0 0 1 .002 11.83z" class="cls-2" transform="translate(-242.296 -129.876)"/>
                        </g>
                    </g>
                    <g id="Group_85" transform="translate(60.923 5.568)">
                        <path id="Path_215" d="M236.692 113.544l-1.6-.292a3.832 3.832 0 0 1 2.988-2.9l.375 1.585a2.233 2.233 0 0 0-1.763 1.607z" class="cls-3" transform="translate(-235.089 -110.356)"/>
                    </g>
                </g>
                <g id="Group_97" transform="translate(0 31.486)">
                    <g id="Group_87" transform="translate(0 4.133)">
                        <path id="Path_216" d="M236.858 132.82a.119.119 0 0 0-.172-.1l-2.836 1.5-54.16 28.523-14.89 8.742-11.448 4.346c-1.873 1.08-4.981 1.334-5.231 2.855v5.389c-.1.618.8 1.137 1.869 1.08l4.866-.27a2.553 2.553 0 0 1 1.373.287l7.442 4.3a3.789 3.789 0 0 0 3.417 0l1.719-.992a3.016 3.016 0 0 0-.569-5.477l-4.195-.516c-.943-.545-5.49-2.487-4.547-3.031l1.841 2.109a3.778 3.778 0 0 1 3.416 0l6.309 3.641a3.792 3.792 0 0 0 3.414 0l.792-.459a3.187 3.187 0 0 0-.434-5.729l-4.9-1.161c-1.069-.618-3.68-1.824-2.609-2.443.911-.527 6.423 3.2 7.505 3.6l6.3 2.347.48-.278c1.869-1.077 3.042-7.053 1.255-8.178l-4.59-.442c-1.789-1.12.326.931 2.195-.148a7.8 7.8 0 0 1 5.844-.485l4.091 1.288a7.8 7.8 0 0 0 5.844-.485c1.751-1.01 2.744-7.17.992-8.181l-4.143-1.221 43.765-25.216z" class="cls-2" transform="translate(-147.051 -131.499)"/>
                        <path id="Path_217" d="M165.681 191.281a4.559 4.559 0 0 1-2.241-.552l-7.444-4.3a1.381 1.381 0 0 0-.789-.143l-4.86.267a3.243 3.243 0 0 1-2.534-.883 1.7 1.7 0 0 1-.452-1.32l.014-5.5c.266-1.6 1.981-2.183 3.638-2.744a12.481 12.481 0 0 0 2.106-.853l.154-.073 11.367-4.316 14.815-8.707 57.573-30.32.627.318a1.171 1.171 0 0 1 .564 1v5.806l-42.153 24.288 2 .62c.947.547 1.449 1.794 1.449 3.611 0 2.074-.757 5.432-2.442 6.4a8.874 8.874 0 0 1-6.69.58l-4.092-1.29a6.93 6.93 0 0 0-1.978-.3 4.691 4.691 0 0 1 .79 3.059c-.035 2.041-.888 5.376-2.667 6.4l-.911.529-3.368-1.256c.021.129.038.26.049.392a4.21 4.21 0 0 1-2.111 4l-.793.46a4.869 4.869 0 0 1-3.673.344 4.016 4.016 0 0 1-1.993 2.927l-1.722.994a4.541 4.541 0 0 1-2.233.562zm-10.365-7.115a3.5 3.5 0 0 1 1.743.431l7.441 4.3a2.724 2.724 0 0 0 2.357 0l1.722-1a1.9 1.9 0 0 0 .966-1.894 2.076 2.076 0 0 0-.059-.319l-2.548-1.476-2.938-.36-.186-.1c-.2-.113-.561-.291-1-.5-.262-.129-.508-.249-.741-.366l-.663.382-1.215-1.39c-1.144-.69-1.566-1.189-1.59-1.839a1.271 1.271 0 0 1 .66-1.147l.753-.435 1.547 1.769c.2.115.421.235.642.35a4.822 4.822 0 0 1 3.374.424l2.036 1.176 1.246.175a4.031 4.031 0 0 1 2.288 1.866l.734.427a2.782 2.782 0 0 0 2.358 0l.789-.457a2.129 2.129 0 0 0-.281-3.827h-.008l-5.043-1.246c-.15-.085-.337-.187-.538-.3-1.712-.93-2.838-1.618-2.85-2.692a1.448 1.448 0 0 1 .78-1.284c.992-.575 2.422.077 6.483 2.456.78.459 1.666.978 1.925 1.073l5.827 2.172.048-.029c.694-.4 1.572-2.606 1.611-4.609a3.322 3.322 0 0 0-.281-1.631l-2.705-.259a4.016 4.016 0 0 1-1.722-.165l-.1-.035a2.6 2.6 0 0 1-1.092-.653l-.569-.7.589-.694c.559-.641 1.274-.311 1.817.015l1 .1a1.207 1.207 0 0 0 .316-.134 8.88 8.88 0 0 1 6.691-.578l4.091 1.291a6.726 6.726 0 0 0 5-.393c.538-.309 1.371-2.394 1.382-4.527a3.136 3.136 0 0 0-.344-1.778l-6.33-1.864 45.371-26.146v-3.023l-55.616 29.291-15.009 8.8-11.375 4.322a14.248 14.248 0 0 1-2.407.979c-.726.248-2.053.7-2.213 1.042v5.155a1.461 1.461 0 0 0 .75.124l4.865-.269z" class="cls-2" transform="translate(-147.353 -131.842)"/>
                    </g>
                    <g id="Group_88">
                        <path id="Path_218" d="M229.863 129.761L182.7 156.933l-17.9 10.333-13.245 7.649a6.1 6.1 0 0 0-3.281 4.021l-.152.922c-.1.618.8 1.137 1.869 1.078l4.866-.267a2.54 2.54 0 0 1 1.373.285l7.442 4.3a3.807 3.807 0 0 0 3.417 0l.471-.274a1.042 1.042 0 0 0 0-1.974l-6.307-3.641a1.04 1.04 0 0 1 0-1.971l.084-.049a3.789 3.789 0 0 1 3.417 0l6.308 3.641a3.783 3.783 0 0 0 3.414 0 1.041 1.041 0 0 0 0-1.972l-3.064-1.768a1.184 1.184 0 0 1-.048-2.207 4.311 4.311 0 0 1 3.47-.239l6.3 2.346.48-.278c1.869-1.078 1.93-2.814.143-3.937l-1.425-.892c-1.79-1.123-1.727-2.859.141-3.937a7.8 7.8 0 0 1 5.844-.485l4.083 1.283a7.722 7.722 0 0 0 5.974-.562c1.565-.975 1.439-2.68-.159-3.6l-6.521-3.765 47.164-27.173z" class="cls-4" transform="translate(-147.051 -128.539)"/>
                        <path id="Path_219" d="M165.681 187.07a4.564 4.564 0 0 1-2.241-.554l-7.444-4.3a1.424 1.424 0 0 0-.785-.143l-4.865.267a3.268 3.268 0 0 1-2.534-.884 1.7 1.7 0 0 1-.438-1.428l.151-.919a7.128 7.128 0 0 1 3.8-4.765l78.84-45.461 9.114 5.26-47.164 27.175 4.932 2.848a3.283 3.283 0 0 1 1.8 2.743 3.11 3.11 0 0 1-1.607 2.674 8.73 8.73 0 0 1-6.851.674l-4.092-1.29a6.727 6.727 0 0 0-4.993.392c-.566.33-.908.736-.915 1.087-.007.334.285.713.8 1.038l1.425.894a3.372 3.372 0 0 1 1.8 2.871 3.476 3.476 0 0 1-1.974 2.88l-.912.527-6.763-2.52a3.289 3.289 0 0 0-2.551.154.575.575 0 0 0-.224.2c.02-.024.073.077.253.182l3.063 1.769a2.082 2.082 0 0 1 0 3.806 4.8 4.8 0 0 1-4.474 0l-6.3-3.642a2.742 2.742 0 0 0-2.358 0 2.183 2.183 0 0 0-.185.12.742.742 0 0 0 .1.066l6.307 3.644a2.082 2.082 0 0 1 0 3.8l-.477.273a4.524 4.524 0 0 1-2.238.562zm-10.356-7.115a3.485 3.485 0 0 1 1.733.432l7.441 4.3a2.729 2.729 0 0 0 2.357 0l.477-.274a1.123 1.123 0 0 0 .1-.067c-.029-.021-.063-.043-.108-.07l-6.305-3.641a2.083 2.083 0 0 1 0-3.806 4.861 4.861 0 0 1 4.56-.049l6.305 3.643a2.792 2.792 0 0 0 2.358 0c.042-.028.078-.052.1-.071a1.083 1.083 0 0 0-.1-.067l-3.063-1.772a2.384 2.384 0 0 1-1.309-2.013 2.347 2.347 0 0 1 1.236-2.013 5.391 5.391 0 0 1 4.393-.329l5.828 2.172.048-.028c.565-.326.908-.732.913-1.084.006-.336-.287-.715-.8-1.039l-1.425-.9a3.361 3.361 0 0 1-1.8-2.87 3.485 3.485 0 0 1 1.972-2.881 8.869 8.869 0 0 1 6.694-.578l4.088 1.29a6.7 6.7 0 0 0 5.1-.452c.229-.143.617-.443.61-.842a1.262 1.262 0 0 0-.74-.944l-8.109-4.683 47.163-27.173-4.874-2.818-77.785 44.852a5.108 5.108 0 0 0-2.765 3.28l-.108.656a1.491 1.491 0 0 0 .72.112l4.865-.267c.076-.005.153-.006.23-.006z" class="cls-2" transform="translate(-147.353 -128.887)"/>
                    </g>
                    <g id="Group_89" transform="translate(8.361 53.173)">
                        <path id="Rectangle_69" d="M0 0H1.627V4.024H0z" class="cls-3"/>
                    </g>
                    <g id="Group_90" transform="translate(23.527 53.023)">
                        <path id="Rectangle_70" d="M0 0H1.629V4.174H0z" class="cls-3"/>
                    </g>
                    <g id="Group_91" transform="translate(31.949 48.755)">
                        <path id="Rectangle_71" d="M0 0H1.627V4.418H0z" class="cls-3"/>
                    </g>
                    <g id="Group_92" transform="translate(15.669 57.12)">
                        <path id="Rectangle_72" d="M0 0H1.63V4.499H0z" class="cls-3"/>
                    </g>
                    <g id="Group_93" transform="translate(43.961 41.189)">
                        <path id="Rectangle_73" d="M0 0H1.629V4.48H0z" class="cls-3"/>
                    </g>
                    <g id="Group_94" transform="translate(77.263 12.803)">
                        <path id="Rectangle_74" d="M0 0H1.629V3.82H0z" class="cls-3"/>
                    </g>
                    <g id="Group_95" transform="translate(71.502 15.806)">
                        <path id="Rectangle_75" d="M0 0H1.629V4.249H0z" class="cls-3"/>
                    </g>
                    <g id="Group_96" transform="translate(50.286 27.935)">
                        <path id="Rectangle_76" d="M0 0H1.631V4.687H0z" class="cls-3"/>
                    </g>
                </g>
            </g>
        </g>
    </g>
</svg>
