<svg xmlns="http://www.w3.org/2000/svg" width="59.628" height="56.123" viewBox="0 0 59.628 56.123">
    <defs>
        <style>
            .cls-1{fill:#cdd4d9}
        </style>
    </defs>
    <g id="Group_2842" transform="translate(-382.762 -295.758)">
        <g id="Smartphone" transform="translate(294 292.112)">
            <path id="Path_2243" d="M144.215 8h-20.04A4.18 4.18 0 0 0 120 12.175v43.419a4.18 4.18 0 0 0 4.175 4.175h20.04a4.18 4.18 0 0 0 4.175-4.175V12.175A4.18 4.18 0 0 0 144.215 8zm-4.358 1.67l-.5 2.5h-10.323l-.5-2.5zm6.863 45.924a2.508 2.508 0 0 1-2.5 2.5h-20.04a2.508 2.508 0 0 1-2.5-2.5V12.175a2.508 2.508 0 0 1 2.5-2.5h2.655l.7 3.5a.835.835 0 0 0 .819.671h11.69a.835.835 0 0 0 .819-.671l.7-3.5h2.655a2.508 2.508 0 0 1 2.5 2.5z" class="cls-1"/>
            <path id="Path_2244" d="M157.845 456h-5.01a.835.835 0 1 0 0 1.67h5.01a.835.835 0 1 0 0-1.67z" class="cls-1" transform="translate(-28.66 -401.241)"/>
            <path id="Path_2245" d="M225.67 456h-.835a.835.835 0 1 0 0 1.67h.835a.835.835 0 1 0 0-1.67z" class="cls-1" transform="translate(-93.145 -401.241)"/>
        </g>
        <g id="photo_1_" transform="translate(382.762 295.758)">
            <path id="Path_2242" fill="#fff" d="M47.822 8H8.653A.653.653 0 0 0 8 8.653V42.6a.653.653 0 0 0 .653.653h25.732a7.181 7.181 0 0 0 14.09-1.958V8.653A.653.653 0 0 0 47.822 8z" transform="translate(-8 -8)"/>
            <path id="Path_2232" d="M47.822 8H8.653A.653.653 0 0 0 8 8.653V42.6a.653.653 0 0 0 .653.653h25.732a7.181 7.181 0 0 0 14.09-1.958V8.653A.653.653 0 0 0 47.822 8zm-6.528 39.17a5.875 5.875 0 1 1 5.875-5.875 5.875 5.875 0 0 1-5.875 5.875zm5.875-10a7.179 7.179 0 0 0-13.057 4.124c0 .22.011.437.03.653H9.306V9.306H47.17z" class="cls-1" transform="translate(-8 -8)"/>
            <path id="Path_2233" d="M74.6 40H40.653a.653.653 0 0 0-.653.653v20.89a.653.653 0 0 0 .653.653H74.6a.653.653 0 0 0 .653-.653v-20.89A.653.653 0 0 0 74.6 40zM43.893 60.89l5.273-7.36L55 60.89zm12.777 0l-3.311-4.175 6.906-9.75L71.242 60.89zm17.276 0H72.9L60.75 45.471a.652.652 0 0 0-1.05.029l-7.186 10.15-2.863-3.608a.66.66 0 0 0-.528-.247.651.651 0 0 0-.514.273l-6.322 8.822h-.982V41.306h32.642z" class="cls-1" transform="translate(-37.389 -37.389)"/>
            <path id="Path_2234" d="M123.264 86.528A3.264 3.264 0 1 0 120 83.264a3.264 3.264 0 0 0 3.264 3.264zm0-5.223a1.958 1.958 0 1 1-1.958 1.958 1.958 1.958 0 0 1 1.958-1.957z" class="cls-1" transform="translate(-110.86 -74.125)"/>
            <path id="Path_2235" d="M366.528 362.611v-1.958a.653.653 0 0 0-.653-.653h-2.611a.653.653 0 0 0-.653.653v1.958h-1.958a.653.653 0 0 0-.653.653v2.611a.653.653 0 0 0 .653.653h1.958v1.958a.653.653 0 0 0 .653.653h2.611a.653.653 0 0 0 .653-.653v-1.958h1.958a.653.653 0 0 0 .653-.653v-2.611a.653.653 0 0 0-.653-.653zm1.306 2.611h-1.958a.653.653 0 0 0-.653.653v1.958h-1.306v-1.958a.653.653 0 0 0-.653-.653h-1.958v-1.306h1.958a.653.653 0 0 0 .653-.653v-1.958h1.306v1.958a.653.653 0 0 0 .653.653h1.958z" class="cls-1" transform="translate(-331.276 -331.276)"/>
            <path id="Path_2236" d="M45.223 328h-4.57a.653.653 0 0 0-.653.653v5.223a.653.653 0 0 0 .653.653h4.57a.653.653 0 0 0 .653-.653v-5.223a.653.653 0 0 0-.653-.653zm-.653 5.223h-3.264v-3.917h3.264z" class="cls-1" transform="translate(-37.389 -301.887)"/>
            <path id="Path_2237" d="M135.834 328h-7.181a.653.653 0 0 0 0 1.306h7.181a.653.653 0 0 0 0-1.306z" class="cls-1" transform="translate(-118.208 -301.887)"/>
            <path id="Path_2238" d="M135.834 360h-7.181a.653.653 0 0 0 0 1.306h7.181a.653.653 0 0 0 0-1.306z" class="cls-1" transform="translate(-118.208 -331.276)"/>
            <path id="Path_2239" d="M131.917 392h-3.264a.653.653 0 1 0 0 1.306h3.264a.653.653 0 1 0 0-1.306z" class="cls-1" transform="translate(-118.208 -360.664)"/>
        </g>
    </g>
</svg>
