<svg xmlns="http://www.w3.org/2000/svg" width="148.067" height="71.339" viewBox="0 0 148.067 71.339">
    <defs>
        <style>
            .cls-4{fill:#127ec5}.cls-2{fill-rule:evenodd;fill:#007ec5}.cls-3{fill:#fff}
        </style>
    </defs>
    <g id="Group_104" transform="translate(-94.771 -323.563)">
        <path id="Path_393" fill="#127ec5" fill-rule="evenodd" d="M115.616 437.87v-24.427L136.3 401.4l-20.68-12.124-20.85 12.215v24.078z" transform="translate(0 -54.946)"/>
        <path id="Path_394" d="M225.29 414.43a1.823 1.823 0 0 1-.9-.25l-1.664-.938 1.9.182c.049 0 .1.007.144.007a.73.73 0 0 0 .8-.543c.03-.148.122-.6-.8-1.279l-.256-.192.612-1.421.62-1.432.315.056a3.462 3.462 0 0 0 .6.059 1 1 0 0 0 .878-.341.776.776 0 0 0-.251-1.055l-1.442-1.268 1.832.577a1.877 1.877 0 0 1 1.346 2.021 2.072 2.072 0 0 1-1.287 1.694 2.12 2.12 0 0 1 .637 1.457 1.913 1.913 0 0 1-.964 1.715l-1.432.843.039-.064a1.634 1.634 0 0 1-.727.172z" class="cls-2" transform="translate(-106.984 -68.939)"/>
        <path id="Path_395" d="M182.756 404.1a1.3 1.3 0 0 1-.377-.061c-.335-.12-.65-.227-.963-.333a14.867 14.867 0 0 1-5.918-3.234c-1.417-1.275-1.983-2.468-1.594-3.361.232-.534.9-1.173 2.746-1.173.25 0 .516.012.793.035a14.864 14.864 0 0 1 6.417 2.1c.29.155.58.31.88.464a1.046 1.046 0 0 1 .493 1.384l-1.522 3.514a1.027 1.027 0 0 1-.955.66z" class="cls-2" transform="translate(-66.065 -60.512)"/>
        <path id="Path_396" d="M177.162 413.04c-1.639 0-3.148-1.978-3.305-3.615l-.144-1.5.877 1.224a7.09 7.09 0 0 0 1.043 1.127 13.393 13.393 0 0 0 2.48 1.8l.616.342-.605.361a1.867 1.867 0 0 1-.962.265z" class="cls-2" transform="translate(-66.005 -70.538)"/>
        <path id="Path_397" d="M183.556 390.485a13.556 13.556 0 0 0-3.006-.579c-.273-.024-.535-.036-.778-.036a6 6 0 0 0-.764.045l-1.483.19 1.184-.913a4.545 4.545 0 0 1 2.7-.856c1.417 0 2.439.642 2.668 1.675l.153.688z" class="cls-2" transform="translate(-69.194 -54.158)"/>
        <path id="Path_398" d="M176.348 461.151a8.04 8.04 0 0 1-2.476-.421 7.811 7.811 0 0 1-5.385-4.945 2.954 2.954 0 0 1 .148-2.178 1.3 1.3 0 0 0-.571-.338c-.075-.019-.143-.032-.209-.045a1.293 1.293 0 0 1-.9-.493 1.18 1.18 0 0 1-.211-.9 1.255 1.255 0 0 1 .527-.822 1.225 1.225 0 0 1 .429-.187h.029a.3.3 0 0 0 .272-.182 1.34 1.34 0 0 1 .333-.349 1.245 1.245 0 0 1 .708-.223 1.2 1.2 0 0 1 1.021.555 1.281 1.281 0 0 1 .129 1.022c-.012.066-.025.134-.034.208a1.242 1.242 0 0 0 .069.566 2.546 2.546 0 0 1 .462-.041 3.331 3.331 0 0 1 1.029.175 5.346 5.346 0 0 0 1.7.3 7.577 7.577 0 0 0 1.39-.163 9.652 9.652 0 0 1 1.824-.2c.14 0 .286 0 .438.013 2.241.129 4.469 1.454 4.392 4.121a4.826 4.826 0 0 1-5.117 4.53zm-5.735-6.446a.588.588 0 0 0-.19.19 1.111 1.111 0 0 0 .045 1.051 5.325 5.325 0 0 0 .906 1.313 4.807 4.807 0 0 1-.739-1.23 1.984 1.984 0 0 1-.022-1.323zm6.082 1.785c-.193.009-.36.139-.354.278s.164.242.354.242a.442.442 0 0 0 .318-.124.211.211 0 0 0 .062-.148c-.006-.136-.167-.247-.358-.247z" class="cls-2" transform="translate(-60.164 -105.769)"/>
        <path id="Path_399" d="M166.974 448.4a.8.8 0 0 1 .678.365c.209.332.084.591.036.961a1.92 1.92 0 0 0 .236 1.1 2.009 2.009 0 0 1 .7-.119 2.876 2.876 0 0 1 .9.156 5.768 5.768 0 0 0 1.831.321c1.1 0 1.908-.363 3.214-.363.133 0 .27 0 .415.012 6 .346 4.858 7.842-.7 7.842a7.594 7.594 0 0 1-2.351-.4 7.463 7.463 0 0 1-5.121-4.674 2.477 2.477 0 0 1 .266-2.122 1.961 1.961 0 0 0-.978-.673c-.362-.093-.649-.072-.883-.387a.815.815 0 0 1 .22-1.146.8.8 0 0 1 .287-.125.685.685 0 0 0 .563-.38.921.921 0 0 1 .223-.226.824.824 0 0 1 .467-.144m7.2 9.355c.079 0 .158 0 .236-.005 2.27-.1 3.622-1.549 3.192-2.946a3.151 3.151 0 0 1-3.136 2.2h-.024c-2.227 0-4.64-1.111-5.5-3.191a1.7 1.7 0 0 1 .346-1.666 1.852 1.852 0 0 0-.284-.023c-1.03 0-1.445.948-.968 1.936a7.105 7.105 0 0 0 6.134 3.7m-2.778-5.314c-.07 0-.135 0-.2-.006.2.4.6.52 1.125.52.738 0 1.706-.236 2.638-.236.143 0 .285 0 .426.018a2.5 2.5 0 0 1 1.8.867c-.066-.749-.864-1.246-1.6-1.4a4.466 4.466 0 0 0-.89-.081c-1.15 0-2.431.314-3.3.314m3.236 2.906h.042a.67.67 0 1 0-.02-1.33h-.037a.729.729 0 0 0-.744.7.718.718 0 0 0 .76.632m-7.654-7.758a1.629 1.629 0 0 0-.925.285l-.011.008-.012.008a1.771 1.771 0 0 0-.415.424l-.014.023-.007.011h-.016l-.029.006a1.6 1.6 0 0 0-.573.252 1.653 1.653 0 0 0-.694 1.085 1.577 1.577 0 0 0 .283 1.208 1.686 1.686 0 0 0 1.149.652c.059.011.12.022.184.039a.645.645 0 0 1 .176.073 3.446 3.446 0 0 0-.04 2.166 8.208 8.208 0 0 0 5.649 5.215 8.445 8.445 0 0 0 2.6.44 5.223 5.223 0 0 0 5.522-4.924c.061-2.117-1.391-4.341-4.774-4.537-.154-.009-.309-.013-.461-.013a10.085 10.085 0 0 0-1.9.207 7.215 7.215 0 0 1-1.318.155 4.954 4.954 0 0 1-1.577-.279 3.712 3.712 0 0 0-1.155-.2h-.134a.4.4 0 0 1 .006-.072c.007-.063.019-.124.03-.182a1.663 1.663 0 0 0-.185-1.313 1.6 1.6 0 0 0-1.363-.744z" class="cls-3" transform="translate(-58.097 -103.704)"/>
        <path id="Path_400" d="M243.685 354.243a7.711 7.711 0 0 1-3.471-.866c-1.469-.783-3.082-2.187-3.379-3.56a1.875 1.875 0 0 1 .342-1.583 1.652 1.652 0 0 1 .178-.2.67.67 0 0 1 .462-.2.715.715 0 0 1 .459.186l.028.024a4.19 4.19 0 0 0-1.043-.861 1.186 1.186 0 0 1-.672-1.339 1.078 1.078 0 0 1 1.037-.807 1.278 1.278 0 0 1 .991.523 5.224 5.224 0 0 0 1.781 1.279.47.47 0 0 1 .235-.372 3.443 3.443 0 0 1 1.765-.6 2.939 2.939 0 0 1 1.064.214 5.764 5.764 0 0 1 3.279 3.365 4.432 4.432 0 0 1-.1 3.433 3.126 3.126 0 0 1-2.957 1.362z" class="cls-2" transform="translate(-118.549 -17.956)"/>
        <path id="Path_401" d="M235.851 343.614a.952.952 0 0 1 .723.4c1.082 1.3 2.924 1.691 4.355 2.573-.443-.719-1.338-1-1.9-1.392a.109.109 0 0 1 .009-.2 3.077 3.077 0 0 1 1.585-.551 2.622 2.622 0 0 1 .94.191c3.241 1.375 3.864 4.683 3 6.31a2.836 2.836 0 0 1-2.649 1.178 7.363 7.363 0 0 1-3.307-.825c-1.953-1.041-4.059-3.148-2.924-4.623a1.251 1.251 0 0 1 .141-.156.332.332 0 0 1 .223-.108.38.38 0 0 1 .237.108c1.188.989 1.643 2.721 3.327 3.624a1.931 1.931 0 0 0 .888.22 1.091 1.091 0 0 0 1.1-.644 1.513 1.513 0 0 1-.844.257 1.913 1.913 0 0 1-1.228-.494c-1.477-1.232-2.162-3.411-3.865-4.374-.934-.53-.479-1.493.194-1.493m0-.7a1.424 1.424 0 0 0-1.372 1.066 1.516 1.516 0 0 0 .837 1.729c.079.045.155.092.229.144a1.237 1.237 0 0 0-.193.147 2 2 0 0 0-.226.249 2.207 2.207 0 0 0-.405 1.865c.342 1.583 2.128 3.033 3.556 3.794a8.084 8.084 0 0 0 3.635.906 3.45 3.45 0 0 0 3.264-1.547 4.724 4.724 0 0 0 .12-3.712 6.1 6.1 0 0 0-3.46-3.566h-.024a3.29 3.29 0 0 0-1.187-.236 3.721 3.721 0 0 0-1.938.647.872.872 0 0 0-.23.2 4.415 4.415 0 0 1-1.346-1.026 1.651 1.651 0 0 0-1.258-.647z" class="cls-3" transform="translate(-116.774 -16.183)"/>
        <path id="Path_402" d="M132.661 337.408a.826.826 0 0 1-.728-.5 12.305 12.305 0 0 0-2.212-3.317.817.817 0 0 1-.173-.892.949.949 0 0 1 .88-.509h.063l2.582.18a9.084 9.084 0 0 1 4.758-5.773 6.683 6.683 0 0 1 2.592-.564 3.263 3.263 0 0 1 2.593 1.035l.03.035.021.041c.824 1.606-.233 3.7-1.563 4.965a9.027 9.027 0 0 1-6.021 2.252 7.817 7.817 0 0 1-1.139-.082l-.824 2.446a.968.968 0 0 1-.859.683zm8.074-9.517a.167.167 0 0 0-.132.041.079.079 0 0 0 0 .059.386.386 0 0 0 .2.2.463.463 0 0 0 .2.051.169.169 0 0 0 .137-.044.126.126 0 0 0-.019-.078.43.43 0 0 0-.193-.18.456.456 0 0 0-.194-.048z" class="cls-2" transform="translate(-29.021 -2.066)"/>
        <path id="Path_403" d="M138.357 324.374a2.892 2.892 0 0 1 2.283.89c.752 1.463-.343 3.4-1.481 4.487a8.667 8.667 0 0 1-5.741 2.139 7.08 7.08 0 0 1-1.414-.135l-.935 2.776a.565.565 0 0 1-.474.406.423.423 0 0 1-.366-.278 12.789 12.789 0 0 0-2.269-3.4c-.349-.408.018-.726.4-.726h.04l2.924.2a8.652 8.652 0 0 1 4.6-5.83 6.254 6.254 0 0 1 2.428-.529m.585 2.211a.536.536 0 0 0 .5-.269.643.643 0 0 0-.395-.8.839.839 0 0 0-.377-.092.531.531 0 0 0-.5.269.641.641 0 0 0 .392.8.859.859 0 0 0 .379.091m-.585-3.021a7.1 7.1 0 0 0-2.756.6 9.54 9.54 0 0 0-4.9 5.717l-2.248-.156h-.1a1.351 1.351 0 0 0-1.248.743 1.217 1.217 0 0 0 .229 1.32 12.055 12.055 0 0 1 2.158 3.232 1.218 1.218 0 0 0 1.094.732 1.353 1.353 0 0 0 1.237-.945l.724-2.143a8.531 8.531 0 0 0 .862.043 9.446 9.446 0 0 0 6.3-2.362c1.438-1.367 2.566-3.654 1.645-5.445l-.041-.082-.06-.071a3.643 3.643 0 0 0-2.9-1.178z" class="cls-3" transform="translate(-26.955)"/>
        <path id="Path_404" d="M182.694 389.354l-3.664-1.154 1.932 1.7a1.821 1.821 0 0 0-.192-.13l-.013-.007-.013-.007c-.3-.153-.588-.307-.874-.461a23.472 23.472 0 0 0-2.674-1.275l-.035-.165c-.273-1.23-1.446-1.993-3.065-1.993a4.968 4.968 0 0 0-2.944.94l-1.919 1.479-.189-.265.036.383-.3.23.316-.041.232 2.427a4.892 4.892 0 0 0 1.2 2.654 3.475 3.475 0 0 0 2.511 1.331 2.262 2.262 0 0 0 1.168-.321l.143-.085a23.4 23.4 0 0 0 2.753 1.073c.309.106.622.213.94.325l.014.006h.015a1.917 1.917 0 0 0 .2.047l-2.516-.241 3.331 1.879a2.252 2.252 0 0 0 .986.3l-.43.683 2.867-1.686a2.323 2.323 0 0 0 1.163-2.075 2.113 2.113 0 0 1 .648-3.1 2.273 2.273 0 0 0-1.627-2.451zm-.779 1.383c.1.09.326.32.187.516-.082.114-.264.171-.547.171h-.054a1.4 1.4 0 0 0-.373-1.375zm-5.665-3.043a14.345 14.345 0 0 0-2.957-.551c-.289-.024-.565-.037-.826-.037-.1 0-.194 0-.287.008a4.374 4.374 0 0 1 1.915-.442 2.29 2.29 0 0 1 2.155 1.021zm-3.211 6.493c-1.152 0-2.373-1.288-2.775-2.628a9.1 9.1 0 0 0 .779.789 14.426 14.426 0 0 0 2.42 1.775 1.45 1.45 0 0 1-.424.063zm2.156-.1l.225-.134-1.234-.684a13.012 13.012 0 0 1-2.4-1.741 6.777 6.777 0 0 1-.986-1.063l-.784-1.1a1.106 1.106 0 0 1 .082-.523 1.127 1.127 0 0 1 .347-.431l1.309-.167a5.51 5.51 0 0 1 .712-.042c.232 0 .481.011.742.034a13.257 13.257 0 0 1 2.918.561l1.342.429-.055-.25c1.043.448 1.96.98 2.965 1.5a.631.631 0 0 1 .314.833l-.29-.052-.256.589-.492 1.137-.486 1.128-.254.59.234.173a.616.616 0 0 1-.57.394.839.839 0 0 1-.258-.043c-1.069-.38-2.084-.684-3.12-1.137zm3.4 1.989a1.407 1.407 0 0 0 1.188-.684c.176.179.319.384.282.562s-.268.219-.4.219a.946.946 0 0 1-.1 0zm3.269-2.849a.075.075 0 0 0-.028.145 1.643 1.643 0 0 1 .262 2.907c.745-1.186-.179-1.968-1.015-2.242a.176.176 0 0 0-.051-.008c-.081 0-.107.07-.05.133 1.23 1.222.419 3.011-.8 3.011a1.425 1.425 0 0 1-.7-.2 1.71 1.71 0 0 0 .181.009 1.125 1.125 0 0 0 1.195-.868 1.6 1.6 0 0 0-.719-1.5l.518-1.2.524-1.211a3.343 3.343 0 0 0 .37.023 1.39 1.39 0 0 0 1.209-.512 1.167 1.167 0 0 0-.314-1.594 1.6 1.6 0 0 1-.579 3.107z" class="cls-3" transform="translate(-61.883 -52.089)"/>
        <path id="Path_405" d="M110.9 410.127a.551.551 0 0 0 .367.374.661.661 0 0 0-.036.476.677.677 0 0 0 .309.392 12.856 12.856 0 0 1-.1 1.99 6.7 6.7 0 0 0 .184 3.02l1 3.383 5.266 3.02.639-.189a1.362 1.362 0 0 0 .917-1.686l-1.859-6.292a6.709 6.709 0 0 0-1.492-2.638 13.083 13.083 0 0 1-1.163-1.607.663.663 0 0 0 .044-.5.674.674 0 0 0-.285-.375.558.558 0 0 0 .061-.088.547.547 0 0 0 .044-.422l-.118-.4a.75.75 0 0 0-.713-.53.74.74 0 0 0-.209.03l-2.469.731a.743.743 0 0 0-.5.922z" class="cls-2" transform="translate(-13.363 -70.643)"/>
        <path id="Path_406" d="M264.486 427.071a1.33 1.33 0 0 0 .238.288l6.613-3.85.111-.5a.825.825 0 0 0-.027-.451.81.81 0 0 0 .289-.46l.153-.68a.828.828 0 0 0-.029-.441.837.837 0 0 0 .291-.467l.144-.661a.8.8 0 0 0-.021-.457.826.826 0 0 0 .291-.464l.147-.67a.816.816 0 0 0-.111-.626l.134-.45a4.32 4.32 0 0 0-.983-3.512l.124-.578a.746.746 0 0 0-.013-.408l.095-.427a.717.717 0 0 0-.539-.849l-1.276-.287a.725.725 0 0 0-.147-.015.715.715 0 0 0-.7.558l-.094.424a.7.7 0 0 0-.184.35l-.132.587a4.336 4.336 0 0 0-2.392 2.761l-.069.462a.806.806 0 0 0-.37.518l-.153.676a.811.811 0 0 1-.147.934l-.152.677a.815.815 0 0 1-.146.931l-.152.673a.825.825 0 0 1-.15.935l-.151.673a.817.817 0 0 0 .044.494.8.8 0 0 0-.248.428l-.151.67a.824.824 0 0 1-.264.913l-.154.676a.834.834 0 0 0 .144.662 1.224 1.224 0 0 0 .137.963z" class="cls-2" transform="translate(-141.653 -73.202)"/>
        <path id="Path_407" d="M261.793 424.994a1.8 1.8 0 0 0 .219.3l.822-.48a.82.82 0 0 1-.349-.891l.072-.259a.382.382 0 0 1-.212-.42l.152-.67a.373.373 0 0 1 .362-.291.386.386 0 0 1 .064.005l.054-.206a.369.369 0 0 1-.214-.421l.15-.671a.372.372 0 0 1 .36-.289h.035l.047-.207a.371.371 0 0 1-.238-.428l.151-.673a.373.373 0 0 1 .364-.288h.024l.043-.207a.371.371 0 0 1-.28-.441l.151-.673a.368.368 0 0 1 .359-.288h.038l.036-.207h-.005a.368.368 0 0 1-.28-.44l.15-.674a.375.375 0 0 1 .361-.287h.015l.036-.211a.373.373 0 0 1-.263-.439l.153-.671a.37.37 0 0 1 .338-.287l.109-.725a3.458 3.458 0 0 1 1.679-2.144l.909-.109h.059a1.073 1.073 0 0 1 .239.033l.09.021v.007l.3.063.607.143a.673.673 0 0 1 .109.054l.753.458a3.475 3.475 0 0 1 .617 2.677c-.073.238-.14.473-.209.7a.369.369 0 0 1 .179.4l-.149.671a.369.369 0 0 1-.357.289.364.364 0 0 1-.063-.005l-.059.207a.369.369 0 0 1 .214.42l-.148.671a.374.374 0 0 1-.362.291.429.429 0 0 1-.08-.008l-.053.2a.373.373 0 0 1 .233.427l-.152.673a.37.37 0 0 1-.362.287.4.4 0 0 1-.075-.007l-.049.205a.372.372 0 0 1 .223.424l-.152.673a.371.371 0 0 1-.361.289h-.032l-.036.166 1.443-.841.02-.088a1.273 1.273 0 0 0 .025-.411 1.251 1.251 0 0 0 .238-.5l.151-.668v-.016a1.211 1.211 0 0 1 .258-.89l.148-.676a1.3 1.3 0 0 1 .268-.914l.149-.674a1.242 1.242 0 0 0-.068-.77l.08-.268a4.6 4.6 0 0 0-.93-3.746l.05-.235.033-.154a1.212 1.212 0 0 0 .01-.505l.07-.318a1.174 1.174 0 0 0-.876-1.391l-1.276-.285a1.169 1.169 0 0 0-1.391.879l-.073.323a1.184 1.184 0 0 0-.209.462l-.036.159-.051.226a4.6 4.6 0 0 0-2.44 2.986l-.043.284a1.262 1.262 0 0 0-.394.678l-.151.661a1.3 1.3 0 0 0 0 .565 1.319 1.319 0 0 0-.15.364l-.153.683a1.307 1.307 0 0 0 0 .564 1.266 1.266 0 0 0-.148.374l-.151.67a1.3 1.3 0 0 0 0 .557 1.284 1.284 0 0 0-.149.378l-.151.673a1.283 1.283 0 0 1-.2.928l-.149.665a1.243 1.243 0 0 0-.026.409 1.258 1.258 0 0 0-.239.507l-.152.665a1.291 1.291 0 0 0 .105.845 1.671 1.671 0 0 0 .222 1.108zm5.486-14.953l.13-.58a.264.264 0 0 1 .312-.2l1.269.285a.261.261 0 0 1 .2.311l-.128.58a.436.436 0 0 1 .03.048 2.1 2.1 0 0 0-.531-.178l-.383-.086-.389-.086a2.243 2.243 0 0 0-.522-.067h-.018a.235.235 0 0 1 .031-.027z" class="cls-3" transform="translate(-139.35 -70.894)"/>
        <path id="Path_408" d="M108.4 408.144a.925.925 0 0 0 .29.45 1.092 1.092 0 0 0 .042.4 1.076 1.076 0 0 0 .295.478 12.456 12.456 0 0 1-.1 1.738 7.145 7.145 0 0 0 .2 3.181l.879 2.97 1.035.593-1.124-3.8c-.6-2.03.069-2.811-.081-5.216a.291.291 0 0 1-.052 0 .268.268 0 0 1-.232-.139.442.442 0 0 0 .051-.011l1.42-.42 1.418-.419a.363.363 0 0 0 .047-.018.265.265 0 0 1-.166.267c1.187 2.1 2.172 2.391 2.771 4.42l1.858 6.292a.949.949 0 0 1-.638 1.174l-1.017.3.988.566.262-.077a1.772 1.772 0 0 0 1.194-2.2l-1.857-6.289a7.147 7.147 0 0 0-1.568-2.783 12.774 12.774 0 0 1-1.028-1.393 1.086 1.086 0 0 0-.019-.583 1.055 1.055 0 0 0-.174-.337.964.964 0 0 0 0-.541l-.116-.393a1.157 1.157 0 0 0-1.437-.78l-1.234.365-1.237.367a1.154 1.154 0 0 0-.779 1.432zm.9-1.039l1.236-.366 1.236-.366a.318.318 0 0 1 .092-.013.334.334 0 0 1 .319.237l.081.275a.369.369 0 0 0-.037 0 1.088 1.088 0 0 0-.312.046l-2.441.721a1.134 1.134 0 0 0-.315.155l-.08-.275a.333.333 0 0 1 .221-.414z" class="cls-3" transform="translate(-11.259 -68.54)"/>
        <g id="Group_103" transform="translate(128.021 334.446)">
            <g id="Group_100" transform="translate(.274 54.403)">
                <path id="Path_409" d="M299.337 722.426a.278.278 0 0 1 .272-.278h1.555c1.1 0 1.827.586 1.827 1.548v.014c0 1.053-.877 1.6-1.918 1.6h-1.184v1.479a.276.276 0 1 1-.552 0zm1.757 2.378c.81 0 1.34-.433 1.34-1.073v-.014c0-.7-.523-1.06-1.312-1.06h-1.233v2.143z" class="cls-4" transform="translate(-299.337 -722.113)"/>
                <path id="Path_410" d="M325.124 732.243v-.013c0-.76.628-1.165 1.541-1.165a3.835 3.835 0 0 1 1.109.154v-.126c0-.648-.4-.983-1.073-.983a2.248 2.248 0 0 0-.935.2.283.283 0 0 1-.1.021.237.237 0 0 1-.237-.23.246.246 0 0 1 .147-.223 2.828 2.828 0 0 1 1.177-.245 1.584 1.584 0 0 1 1.165.4 1.422 1.422 0 0 1 .369 1.053v1.973a.255.255 0 0 1-.258.266.248.248 0 0 1-.257-.252v-.327a1.583 1.583 0 0 1-1.3.62 1.214 1.214 0 0 1-1.348-1.123zm2.657-.279v-.349a3.757 3.757 0 0 0-1.06-.153c-.678 0-1.053.293-1.053.746v.014c0 .452.418.718.906.718a1.091 1.091 0 0 0 1.207-.976z" class="cls-4" transform="translate(-320.898 -728.372)"/>
                <path id="Path_411" d="M349.24 734.4a.243.243 0 0 1-.167-.23.232.232 0 0 1 .231-.229.4.4 0 0 1 .131.028 1.124 1.124 0 0 0 .391.063c.335 0 .531-.2.726-.642l.027-.056-1.506-3.193a.384.384 0 0 1-.035-.146.266.266 0 0 1 .272-.265.283.283 0 0 1 .272.209l1.256 2.831 1.115-2.839a.271.271 0 0 1 .258-.2.264.264 0 0 1 .265.265.462.462 0 0 1-.028.132l-1.409 3.362c-.313.745-.662 1.018-1.206 1.018a1.689 1.689 0 0 1-.593-.108z" class="cls-4" transform="translate(-340.893 -728.448)"/>
                <path id="Path_412" d="M388.991 722.213a.275.275 0 1 1 .551 0v4.129h2.532a.257.257 0 0 1 .252.258.251.251 0 0 1-.252.25h-2.811a.279.279 0 0 1-.272-.279z" class="cls-4" transform="translate(-374.298 -721.935)"/>
                <path id="Path_413" d="M414.791 733.233a1.793 1.793 0 0 1-1.8-1.876v-.013a1.779 1.779 0 0 1 1.731-1.876 1.7 1.7 0 0 1 1.672 1.827.249.249 0 0 1-.25.251h-2.609a1.26 1.26 0 0 0 1.269 1.221 1.477 1.477 0 0 0 1.04-.418.231.231 0 0 1 .39.167.227.227 0 0 1-.084.174 1.824 1.824 0 0 1-1.359.543zm1.065-2.085a1.186 1.186 0 0 0-1.15-1.228 1.244 1.244 0 0 0-1.172 1.228z" class="cls-4" transform="translate(-394.365 -728.233)"/>
                <path id="Path_414" d="M437.862 732.836a.245.245 0 0 1-.1-.2.233.233 0 0 1 .236-.23.215.215 0 0 1 .133.042 2.018 2.018 0 0 0 1.143.384c.432 0 .747-.223.747-.572v-.014c0-.364-.426-.5-.9-.635-.565-.16-1.193-.355-1.193-1.018v-.014a1.092 1.092 0 0 1 1.227-1.032 2.516 2.516 0 0 1 1.151.307.262.262 0 0 1 .131.223.233.233 0 0 1-.236.23.267.267 0 0 1-.118-.027 1.965 1.965 0 0 0-.943-.279c-.425 0-.7.223-.7.523v.015c0 .341.445.474.927.62.556.167 1.157.384 1.157 1.033v.013a1.135 1.135 0 0 1-1.284 1.082 2.5 2.5 0 0 1-1.378-.451z" class="cls-4" transform="translate(-415.079 -728.303)"/>
                <path id="Path_415" d="M458.617 732.836a.246.246 0 0 1-.1-.2.235.235 0 0 1 .238-.23.209.209 0 0 1 .132.042 2.027 2.027 0 0 0 1.144.384c.432 0 .746-.223.746-.572v-.014c0-.364-.425-.5-.9-.635-.566-.16-1.193-.355-1.193-1.018v-.014a1.091 1.091 0 0 1 1.227-1.032 2.516 2.516 0 0 1 1.151.307.261.261 0 0 1 .133.223.234.234 0 0 1-.237.23.283.283 0 0 1-.12-.027 1.957 1.957 0 0 0-.938-.28c-.425 0-.7.223-.7.523v.015c0 .341.447.474.928.62.558.167 1.157.384 1.157 1.033v.013a1.135 1.135 0 0 1-1.284 1.082 2.5 2.5 0 0 1-1.384-.45z" class="cls-4" transform="translate(-432.432 -728.303)"/>
                <path id="Path_416" d="M494.155 722.657h-1.416a.257.257 0 0 1-.258-.252.263.263 0 0 1 .258-.257h3.389a.262.262 0 0 1 .258.257.256.256 0 0 1-.258.252h-1.416v4.128a.279.279 0 1 1-.557 0z" class="cls-4" transform="translate(-460.829 -722.113)"/>
                <path id="Path_417" d="M515.076 731.364v-.014a1.88 1.88 0 0 1 3.76-.013v.013a1.873 1.873 0 0 1-1.891 1.884 1.848 1.848 0 0 1-1.869-1.87zm3.209 0v-.014a1.365 1.365 0 0 0-1.34-1.408 1.33 1.33 0 0 0-1.318 1.395v.013a1.352 1.352 0 0 0 1.332 1.4 1.331 1.331 0 0 0 1.326-1.386z" class="cls-4" transform="translate(-479.721 -728.233)"/>
                <path id="Path_418" d="M556.829 724.933l-1.815-2.539a.351.351 0 0 1-.062-.189.284.284 0 0 1 .286-.271.324.324 0 0 1 .265.167l1.61 2.322 1.626-2.322a.311.311 0 0 1 .258-.167.271.271 0 0 1 .272.271.414.414 0 0 1-.077.2l-1.806 2.51v1.687a.278.278 0 1 1-.556 0z" class="cls-4" transform="translate(-513.063 -721.935)"/>
                <path id="Path_419" d="M581.292 731.364v-.014a1.88 1.88 0 0 1 3.759-.013v.013a1.872 1.872 0 0 1-1.89 1.884 1.847 1.847 0 0 1-1.869-1.87zm3.208 0v-.014a1.365 1.365 0 0 0-1.34-1.408 1.331 1.331 0 0 0-1.318 1.395v.013a1.352 1.352 0 0 0 1.333 1.4 1.33 1.33 0 0 0 1.325-1.386z" class="cls-4" transform="translate(-535.085 -728.233)"/>
                <path id="Path_420" d="M612.945 733.127a.265.265 0 1 1-.529 0v-.391a1.374 1.374 0 0 1-1.235.7A1.317 1.317 0 0 1 609.8 732v-2a.263.263 0 0 1 .266-.272.273.273 0 0 1 .272.272v1.869a.96.96 0 0 0 1 1.088 1.065 1.065 0 0 0 1.081-1.13V730a.262.262 0 0 1 .266-.272.266.266 0 0 1 .264.272z" class="cls-4" transform="translate(-558.921 -728.448)"/>
                <path id="Path_421" d="M636.358 729.921a.269.269 0 1 1 .537 0v.676a1.491 1.491 0 0 1 1.241-.963.257.257 0 0 1 .264.272.266.266 0 0 1-.236.273 1.466 1.466 0 0 0-1.27 1.645v1.227a.269.269 0 1 1-.537 0z" class="cls-4" transform="translate(-581.127 -728.372)"/>
                <path id="Path_422" d="M666.908 722.426a.279.279 0 0 1 .273-.278h1.419a2.434 2.434 0 0 1 2.595 2.427v.013a2.444 2.444 0 0 1-2.595 2.441h-1.42a.278.278 0 0 1-.273-.278zm1.695 4.094a1.89 1.89 0 0 0 2.023-1.918v-.014a1.9 1.9 0 0 0-2.023-1.931h-1.143v3.863z" class="cls-4" transform="translate(-606.67 -722.113)"/>
                <path id="Path_423" d="M698.268 731.364v-.014a1.879 1.879 0 0 1 3.758-.013v.013a1.871 1.871 0 0 1-1.889 1.884 1.848 1.848 0 0 1-1.869-1.87zm3.209 0v-.014a1.365 1.365 0 0 0-1.339-1.408 1.33 1.33 0 0 0-1.318 1.395v.013a1.351 1.351 0 0 0 1.332 1.4 1.33 1.33 0 0 0 1.325-1.386z" class="cls-4" transform="translate(-632.891 -728.233)"/>
                <path id="Path_424" d="M725.763 731.364v-.014a1.879 1.879 0 0 1 3.758-.013v.013a1.872 1.872 0 0 1-1.889 1.884 1.847 1.847 0 0 1-1.869-1.87zm3.208 0v-.014a1.364 1.364 0 0 0-1.339-1.408 1.331 1.331 0 0 0-1.318 1.395v.013a1.352 1.352 0 0 0 1.333 1.4 1.33 1.33 0 0 0 1.324-1.386z" class="cls-4" transform="translate(-655.88 -728.233)"/>
                <path id="Path_425" d="M754.608 729.921a.271.271 0 0 1 .265-.272.267.267 0 0 1 .271.272v.676a1.5 1.5 0 0 1 1.243-.963.258.258 0 0 1 .265.272.268.268 0 0 1-.237.273 1.468 1.468 0 0 0-1.271 1.645v1.227a.266.266 0 0 1-.264.272.269.269 0 0 1-.272-.272z" class="cls-4" transform="translate(-679.998 -728.372)"/>
            </g>
            <g id="Group_102">
                <g id="Group_101">
                    <path id="Path_426" d="M404.836 410.681a2.809 2.809 0 0 1-2.644 2.395c-1.586 0-2.425-1.151-1.9-3.11l2.642-9.7a2.008 2.008 0 0 1-1.741-2.022 1.966 1.966 0 0 1 1.96-2.021H404l.218-.9c.963-3.7 3.265-5.349 6.749-5.349a9.828 9.828 0 0 1 1.43.093 1.747 1.747 0 0 1 1.555 1.8c0 1.493-1.058 2.333-2.083 2.146a6.118 6.118 0 0 0-.747-.063 2.2 2.2 0 0 0-2.332 1.8l-.124.467h1.678a2.022 2.022 0 0 1 0 4.043h-2.673z" class="cls-4" transform="translate(-383.345 -389.969)"/>
                    <path id="Path_427" d="M480.746 430.18c1.119-2.145 2.393-3.2 3.825-3.2a1.919 1.919 0 0 1 2.02 2.114 2.357 2.357 0 0 1-2.052 2.424c-2.953.84-4.819 2.707-5.815 6.407l-1.026 3.7a2.808 2.808 0 0 1-2.643 2.395c-1.587 0-2.427-1.151-1.9-3.11l3.111-11.538a2.807 2.807 0 0 1 2.643-2.394c1.556 0 2.332 1.151 1.928 2.829z" class="cls-4" transform="translate(-444.265 -420.912)"/>
                    <path id="Path_428" d="M567.144 439.123a3.224 3.224 0 0 1 1.432-.435 1.741 1.741 0 0 1 1.773 1.8 1.924 1.924 0 0 1-.9 1.586 9.778 9.778 0 0 1-5.411 1.493c-4.789 0-7.712-2.8-7.712-7.4a10.016 10.016 0 0 1 9.889-9.951c4.323 0 6.811 2.8 6.811 6.5a8.122 8.122 0 0 1-.188 1.711c-.309 1.369-1.025 2.083-2.268 2.083h-9.8c.155 1.96 1.3 3.265 3.792 3.265a5.517 5.517 0 0 0 2.582-.652zm1.277-5.566a3.883 3.883 0 0 0 .155-1.089c0-1.368-.808-2.457-2.737-2.457a5.024 5.024 0 0 0-4.664 3.546z" class="cls-4" transform="translate(-513.935 -420.277)"/>
                    <path id="Path_429" d="M682.333 439.123a3.209 3.209 0 0 1 1.429-.435 1.741 1.741 0 0 1 1.774 1.8 1.924 1.924 0 0 1-.9 1.586 9.774 9.774 0 0 1-5.41 1.493c-4.789 0-7.712-2.8-7.712-7.4a10.015 10.015 0 0 1 9.888-9.951c4.324 0 6.811 2.8 6.811 6.5a8.218 8.218 0 0 1-.187 1.711c-.31 1.369-1.026 2.083-2.27 2.083h-9.8c.156 1.96 1.306 3.265 3.8 3.265a5.524 5.524 0 0 0 2.577-.652zm1.275-5.566a3.828 3.828 0 0 0 .155-1.089c0-1.368-.807-2.457-2.736-2.457a5.026 5.026 0 0 0-4.665 3.546z" class="cls-4" transform="translate(-610.246 -420.277)"/>
                    <path id="Path_430" d="M791.264 428.115c1.306 0 2.115.652 2.115 1.741v.031a2.636 2.636 0 0 1-1.151 2.113l-10.293 8.956h6.219a1.939 1.939 0 0 1 1.93 1.929 1.913 1.913 0 0 1-1.93 1.9h-10.729c-1.306 0-2.113-.653-2.113-1.742v-.03a2.636 2.636 0 0 1 1.151-2.115l10.262-8.957h-5.846a1.911 1.911 0 0 1-1.929-1.9 1.938 1.938 0 0 1 1.929-1.928z" class="cls-4" transform="translate(-697.035 -421.864)"/>
                    <path id="Path_431" d="M882.386 444.92a1.968 1.968 0 0 0 1.617-.995l-1.99-13.621a7.017 7.017 0 0 1-.094-1.12 2.274 2.274 0 0 1 2.364-2.207 2.127 2.127 0 0 1 2.3 2.021l.964 9.609 5.847-10.138a2.662 2.662 0 0 1 2.395-1.493 1.827 1.827 0 0 1 2.053 1.834 3.438 3.438 0 0 1-.622 1.616l-8.646 13.809c-2.146 3.42-4.043 4.665-6.749 4.665a5.644 5.644 0 0 1-2.238-.343 2.143 2.143 0 0 1-1.431-2.052 2 2 0 0 1 1.866-2.053 3.866 3.866 0 0 1 .964.218 4.867 4.867 0 0 0 1.4.25z" class="cls-4" transform="translate(-783.025 -420.912)"/>
                    <path id="Path_432" d="M302.366 566.424a2.807 2.807 0 0 1-2.644 2.394c-1.586 0-2.425-1.15-1.9-3.11l2.643-9.7a2.008 2.008 0 0 1-1.742-2.021 1.966 1.966 0 0 1 1.958-2.022h.841l.217-.9c.964-3.7 3.267-5.348 6.749-5.348a9.835 9.835 0 0 1 1.43.092 1.748 1.748 0 0 1 1.555 1.8c0 1.493-1.057 2.333-2.082 2.147a5.893 5.893 0 0 0-.747-.063 2.2 2.2 0 0 0-2.332 1.8l-.125.466h1.679a2.023 2.023 0 0 1 0 4.044h-2.675z" class="cls-4" transform="translate(-297.667 -520.19)"/>
                    <path id="Path_433" d="M378.283 585.92c1.117-2.146 2.395-3.2 3.824-3.2a1.921 1.921 0 0 1 2.021 2.115 2.359 2.359 0 0 1-2.052 2.425c-2.954.839-4.819 2.705-5.815 6.405l-1.026 3.7a2.809 2.809 0 0 1-2.644 2.394c-1.586 0-2.425-1.15-1.9-3.11l3.11-11.537a2.809 2.809 0 0 1 2.644-2.394c1.555 0 2.332 1.15 1.927 2.83z" class="cls-4" transform="translate(-358.594 -551.129)"/>
                    <path id="Path_434" d="M464.68 594.862a3.212 3.212 0 0 1 1.432-.435 1.74 1.74 0 0 1 1.772 1.8 1.923 1.923 0 0 1-.9 1.587 9.781 9.781 0 0 1-5.411 1.493c-4.787 0-7.711-2.8-7.711-7.4a10.016 10.016 0 0 1 9.889-9.952c4.323 0 6.809 2.8 6.809 6.5a8.228 8.228 0 0 1-.186 1.712c-.31 1.368-1.027 2.084-2.269 2.084h-9.8c.155 1.958 1.306 3.265 3.793 3.265a5.524 5.524 0 0 0 2.582-.654zm1.276-5.568a3.836 3.836 0 0 0 .156-1.088c0-1.368-.809-2.457-2.738-2.457a5.026 5.026 0 0 0-4.664 3.545z" class="cls-4" transform="translate(-428.262 -550.492)"/>
                    <path id="Path_435" d="M567.8 594.239c0-.622-.778-1.057-1.928-1.555-2.612-1.119-4.852-2.208-4.852-4.883 0-3.326 2.55-5.846 6.686-5.846a10.837 10.837 0 0 1 5.318 1.493 1.939 1.939 0 0 1 1.088 1.741 1.985 1.985 0 0 1-1.959 2.021 2.288 2.288 0 0 1-1.245-.468 6.361 6.361 0 0 0-3.544-1.18c-1.151 0-1.837.528-1.837 1.4 0 .654.81 1.12 2.21 1.742 2.175.964 4.571 2.114 4.571 4.726 0 3.639-2.861 5.878-6.842 5.878a11.18 11.18 0 0 1-6.407-2.084 1.891 1.891 0 0 1-.84-1.618 1.945 1.945 0 0 1 1.9-1.989 2.056 2.056 0 0 1 1.245.435 6.89 6.89 0 0 0 4.447 1.648c1.244 0 1.989-.529 1.989-1.461z" class="cls-4" transform="translate(-515.523 -550.492)"/>
                    <path id="Path_436" d="M674.534 566.581a2.807 2.807 0 0 1-2.643 2.394c-1.586 0-2.425-1.15-1.9-3.11l1.679-6.219a6.666 6.666 0 0 0 .218-1.492c0-1.338-.84-2.053-2.3-2.053-1.866 0-3.079 1.337-3.607 3.328l-1.931 7.153a2.806 2.806 0 0 1-2.642 2.394c-1.586 0-2.425-1.15-1.9-3.11l4.664-17.571a2.808 2.808 0 0 1 2.643-2.394c1.587 0 2.426 1.151 1.9 3.11l-1.274 4.852a6.872 6.872 0 0 1 4.54-2.053 4.541 4.541 0 0 1 4.913 4.851 13.672 13.672 0 0 1-.56 3.173z" class="cls-4" transform="translate(-600.083 -520.346)"/>
                </g>
            </g>
        </g>
    </g>
</svg>
